<svg width="260" height="169" viewBox="0 0 260 169" fill="none" xmlns="http://www.w3.org/2000/svg">
<path d="M75.8438 98.9375C75.8438 95.3958 74.0104 92.9375 70.3438 91.5625C68.4271 90.8542 66.1771 90.5 63.5938 90.5H44.1562V92.1875H49.1562V126.312H44.1562V128H64.4062C69.9896 128 74.0312 126.312 76.5312 122.938C77.8229 121.188 78.4688 119.25 78.4688 117.125C78.4688 112.958 76.3646 110.104 72.1562 108.562C71.0312 108.146 69.8021 107.833 68.4688 107.625C71.9688 106.458 74.2604 104.458 75.3438 101.625C75.6771 100.708 75.8438 99.8125 75.8438 98.9375ZM60.7188 92.1875C65.4271 92.2708 67.8021 94.6875 67.8438 99.4375C67.8438 102.854 66.6146 105.104 64.1562 106.188C63.2396 106.604 62.1979 106.812 61.0312 106.812H56.8438V92.1875H60.7188ZM62.4688 108.562C65.9688 108.562 68.3021 110.125 69.4688 113.25C69.8854 114.333 70.0938 115.542 70.0938 116.875C70.0938 121.167 68.6771 124.042 65.8438 125.5C64.7188 126.042 63.4271 126.312 61.9688 126.312H56.8438V108.562H62.4688Z" fill="black"/>
<path d="M121.219 78.375H119.156V63.875C119.156 60.1667 120.344 57.625 122.719 56.25C123.552 55.7917 124.385 55.5625 125.219 55.5625C127.635 55.5625 129.177 56.8542 129.844 59.4375C130.01 60.1458 130.094 60.9375 130.094 61.8125V75C130.094 76.7083 129.781 77.7292 129.156 78.0625C128.698 78.2708 127.99 78.375 127.031 78.375V80H140.906C140.906 79.0833 140.635 78.5625 140.094 78.4375C139.844 78.3958 139.594 78.375 139.344 78.375H136.969V62.5625C136.969 57.6042 135.281 54.4167 131.906 53C130.865 52.5833 129.74 52.375 128.531 52.375C125.156 52.375 122.469 53.625 120.469 56.125C119.927 56.875 119.49 57.6458 119.156 58.4375V39.375H108.281V41H112.281V75C112.281 76.875 111.552 77.9583 110.094 78.25C109.594 78.3333 108.99 78.375 108.281 78.375V80H122.781C122.781 79.0833 122.51 78.5625 121.969 78.4375C121.719 78.3958 121.469 78.375 121.219 78.375ZM151.719 66.5C151.719 60.1667 152.844 56.2708 155.094 54.8125C156.01 54.2708 157.073 54 158.281 54C161.448 54 163.448 55.7917 164.281 59.375C164.698 61.125 164.906 63.4167 164.906 66.25C164.906 72.9583 163.635 77 161.094 78.375C160.26 78.7917 159.323 79 158.281 79C155.156 79 153.177 77.2083 152.344 73.625C151.927 71.8333 151.719 69.4583 151.719 66.5ZM158.531 52.375C153.781 52.375 150.031 54 147.281 57.25C145.198 59.75 144.156 62.75 144.156 66.25C144.156 71.0833 145.865 74.875 149.281 77.625C151.781 79.625 154.719 80.625 158.094 80.625C162.719 80.625 166.406 78.9583 169.156 75.625C171.323 73 172.406 69.875 172.406 66.25C172.406 61.375 170.656 57.6458 167.156 55.0625C164.74 53.2708 161.865 52.375 158.531 52.375ZM188.719 78.375H186.781L186.844 62.9375C187.135 59.6042 188.385 57.3125 190.594 56.0625C191.385 55.6458 192.177 55.4375 192.969 55.4375C195.302 55.4375 196.781 56.6667 197.406 59.125C197.615 59.875 197.719 60.7083 197.719 61.625V75C197.719 76.75 197.24 77.7917 196.281 78.125C195.823 78.2917 195.156 78.375 194.281 78.375V80H208.594C208.594 79.0833 208.323 78.5625 207.781 78.4375C207.531 78.3958 207.281 78.375 207.031 78.375H204.594V62.5625C204.594 57.6458 202.885 54.4792 199.469 53.0625C198.385 52.6042 197.219 52.375 195.969 52.375C192.969 52.375 190.427 53.5625 188.344 55.9375C187.677 56.7292 187.135 57.5625 186.719 58.4375L186.406 53.25H175.906V54.8125H179.906V75C179.906 76.8333 179.219 77.8958 177.844 78.1875C177.302 78.3125 176.656 78.375 175.906 78.375V80H190.281C190.281 79.0833 190.01 78.5625 189.469 78.4375C189.219 78.3958 188.969 78.375 188.719 78.375ZM217.281 90C216.573 90 216.01 89.4583 215.594 88.375C215.052 86.9583 214.552 86.0833 214.094 85.75C213.635 85.4167 213.073 85.25 212.406 85.25C210.99 85.25 210.094 85.8542 209.719 87.0625C209.635 87.3542 209.594 87.625 209.594 87.875C209.594 89.3333 210.469 90.4792 212.219 91.3125C213.302 91.8125 214.49 92.0625 215.781 92.0625C219.198 92.0625 222.094 90.0417 224.469 86C225.385 84.5 226.26 82.6875 227.094 80.5625L236.406 56.75C236.865 55.625 237.385 55 237.969 54.875C238.135 54.8333 238.323 54.8125 238.531 54.8125C239.406 54.8125 239.906 54.5417 240.031 54C240.073 53.7917 240.094 53.5417 240.094 53.25H230.469V54.8125H235.156L227.906 73.0625L220.094 54.8125H224.031V53.25H210.094V54.8125H212.906L224.781 80.875C222.656 86.0417 220.615 89 218.656 89.75C218.198 89.9167 217.74 90 217.281 90Z" fill="black"/>
<path d="M120.969 102C123.552 102 125.094 103.521 125.594 106.562C125.719 107.229 125.781 107.917 125.781 108.625C125.781 110.583 125.073 111.812 123.656 112.312C122.74 112.562 121.406 112.667 119.656 112.625L114.844 112.438C115.01 106.521 116.573 103.104 119.531 102.188C120.031 102.062 120.51 102 120.969 102ZM132.406 121.688L130.906 121.188C129.698 123.812 127.781 125.542 125.156 126.375C124.281 126.667 123.385 126.812 122.469 126.812C117.594 126.812 115.052 122.667 114.844 114.375C114.844 114.333 114.844 114.292 114.844 114.25L121.156 114.375C127.406 114.5 131.156 113.604 132.406 111.688C132.823 111.021 133.031 110.229 133.031 109.312C133.031 106.021 131.365 103.542 128.031 101.875C125.948 100.875 123.594 100.375 120.969 100.375C116.177 100.375 112.51 102.104 109.969 105.562C108.177 108.021 107.281 111 107.281 114.5C107.281 120.208 109.385 124.292 113.594 126.75C115.844 128 118.365 128.625 121.156 128.625C125.906 128.625 129.344 126.938 131.469 123.562C131.844 122.938 132.156 122.312 132.406 121.688ZM150.469 102C153.052 102 154.594 103.521 155.094 106.562C155.219 107.229 155.281 107.917 155.281 108.625C155.281 110.583 154.573 111.812 153.156 112.312C152.24 112.562 150.906 112.667 149.156 112.625L144.344 112.438C144.51 106.521 146.073 103.104 149.031 102.188C149.531 102.062 150.01 102 150.469 102ZM161.906 121.688L160.406 121.188C159.198 123.812 157.281 125.542 154.656 126.375C153.781 126.667 152.885 126.812 151.969 126.812C147.094 126.812 144.552 122.667 144.344 114.375C144.344 114.333 144.344 114.292 144.344 114.25L150.656 114.375C156.906 114.5 160.656 113.604 161.906 111.688C162.323 111.021 162.531 110.229 162.531 109.312C162.531 106.021 160.865 103.542 157.531 101.875C155.448 100.875 153.094 100.375 150.469 100.375C145.677 100.375 142.01 102.104 139.469 105.562C137.677 108.021 136.781 111 136.781 114.5C136.781 120.208 138.885 124.292 143.094 126.75C145.344 128 147.865 128.625 150.656 128.625C155.406 128.625 158.844 126.938 160.969 123.562C161.344 122.938 161.656 122.312 161.906 121.688ZM176.344 126.875C179.135 126.875 180.865 125.938 181.531 124.062C181.656 123.646 181.719 123.229 181.719 122.812C181.719 120.812 180.406 119.125 177.781 117.75C177.198 117.458 176.281 117.042 175.031 116.5C171.823 115.083 169.677 113.792 168.594 112.625C167.469 111.292 166.906 109.75 166.906 108C166.906 104.708 168.698 102.438 172.281 101.188C173.865 100.646 175.635 100.375 177.594 100.375C180.635 100.375 183.135 100.958 185.094 102.125C185.094 100.875 185.427 100.188 186.094 100.062C186.302 100.021 186.51 100 186.719 100V107.812H184.844C184.677 104.021 182.594 102.104 178.594 102.062C175.802 102.062 174.073 102.938 173.406 104.688C173.24 105.146 173.156 105.604 173.156 106.062C173.156 107.812 174.406 109.333 176.906 110.625C177.448 110.875 178.323 111.271 179.531 111.812C182.823 113.229 185.01 114.542 186.094 115.75C187.344 117.167 187.969 118.833 187.969 120.75C187.969 124.292 186.135 126.667 182.469 127.875C180.969 128.375 179.302 128.625 177.469 128.625C173.969 128.625 171.031 127.938 168.656 126.562C168.656 127.646 168.385 128.271 167.844 128.438C167.594 128.479 167.302 128.5 166.969 128.5V119H168.969C169.052 124.208 171.51 126.833 176.344 126.875ZM205.781 102C208.365 102 209.906 103.521 210.406 106.562C210.531 107.229 210.594 107.917 210.594 108.625C210.594 110.583 209.885 111.812 208.469 112.312C207.552 112.562 206.219 112.667 204.469 112.625L199.656 112.438C199.823 106.521 201.385 103.104 204.344 102.188C204.844 102.062 205.323 102 205.781 102ZM217.219 121.688L215.719 121.188C214.51 123.812 212.594 125.542 209.969 126.375C209.094 126.667 208.198 126.812 207.281 126.812C202.406 126.812 199.865 122.667 199.656 114.375C199.656 114.333 199.656 114.292 199.656 114.25L205.969 114.375C212.219 114.5 215.969 113.604 217.219 111.688C217.635 111.021 217.844 110.229 217.844 109.312C217.844 106.021 216.177 103.542 212.844 101.875C210.76 100.875 208.406 100.375 205.781 100.375C200.99 100.375 197.323 102.104 194.781 105.562C192.99 108.021 192.094 111 192.094 114.5C192.094 120.208 194.198 124.292 198.406 126.75C200.656 128 203.177 128.625 205.969 128.625C210.719 128.625 214.156 126.938 216.281 123.562C216.656 122.938 216.969 122.312 217.219 121.688ZM243.156 128H253.656C253.656 127.083 253.406 126.562 252.906 126.438C252.698 126.396 252.427 126.375 252.094 126.375H249.156V87.375H236.469V89H242.219V103.312C240.094 101.354 237.49 100.375 234.406 100.375C230.281 100.375 226.99 102.042 224.531 105.375C222.573 108.083 221.594 111.354 221.594 115.188C221.594 120.354 223.281 124.167 226.656 126.625C228.531 127.958 230.615 128.625 232.906 128.625C236.99 128.625 239.99 126.75 241.906 123C242.115 122.625 242.281 122.271 242.406 121.938L243.156 128ZM229.156 114.438C229.156 108.438 230.531 104.625 233.281 103C234.156 102.5 235.073 102.25 236.031 102.25C238.906 102.25 240.823 104.146 241.781 107.938C242.156 109.479 242.344 111.25 242.344 113.25C242.344 119.083 241.052 122.958 238.469 124.875C237.552 125.542 236.531 125.875 235.406 125.875C232.323 125.875 230.365 123.625 229.531 119.125C229.281 117.708 229.156 116.146 229.156 114.438Z" fill="black"/>
<path d="M42.25 80C42.25 79.0417 41.9583 78.5 41.375 78.375C41.2083 78.3333 40.9792 78.3125 40.6875 78.3125H38.75L24.125 42.5H20.25L6.5 78.3125H2.5V80H13.875C13.875 79.0417 13.5833 78.5 13 78.375C12.7917 78.3333 12.5625 78.3125 12.3125 78.3125H9L13.5625 66.3125H26.1875L30.875 78.3125H26.5625V80H42.25ZM25.4375 64.4375H14.25L19.8125 49.8125L25.4375 64.4375ZM56.5 78.375H54.5625L54.625 62.9375C54.9167 59.6042 56.1667 57.3125 58.375 56.0625C59.1667 55.6458 59.9583 55.4375 60.75 55.4375C63.0833 55.4375 64.5625 56.6667 65.1875 59.125C65.3958 59.875 65.5 60.7083 65.5 61.625V75C65.5 76.75 65.0208 77.7917 64.0625 78.125C63.6042 78.2917 62.9375 78.375 62.0625 78.375V80H76.375C76.375 79.0833 76.1042 78.5625 75.5625 78.4375C75.3125 78.3958 75.0625 78.375 74.8125 78.375H72.375V62.5625C72.375 57.6458 70.6667 54.4792 67.25 53.0625C66.1667 52.6042 65 52.375 63.75 52.375C60.75 52.375 58.2083 53.5625 56.125 55.9375C55.4583 56.7292 54.9167 57.5625 54.5 58.4375L54.1875 53.25H43.6875V54.8125H47.6875V75C47.6875 76.8333 47 77.8958 45.625 78.1875C45.0833 78.3125 44.4375 78.375 43.6875 78.375V80H58.0625C58.0625 79.0833 57.7917 78.5625 57.25 78.4375C57 78.3958 56.75 78.375 56.5 78.375Z" fill="black"/>
<line x1="85" x2="85" y2="169" stroke="black" stroke-width="2"/>
<line x1="87" x2="87" y2="169" stroke="black" stroke-width="2"/>
<line x1="83" x2="83" y2="169" stroke="black" stroke-width="2"/>
<line x1="101" y1="15" x2="101" y2="133" stroke="black" stroke-width="2"/>
<line x1="99" y1="15" x2="99" y2="133" stroke="black" stroke-width="2"/>
<line x1="97" y1="15" x2="97" y2="133" stroke="black" stroke-width="2"/>
<line x1="43" y1="36" x2="143" y2="36" stroke="black" stroke-width="2"/>
<line x1="84" y1="132" x2="184" y2="132" stroke="black" stroke-width="2"/>
</svg>
